<svg fill="none" height="163" viewBox="0 0 99 163" width="99" xmlns="http://www.w3.org/2000/svg"><g clip-rule="evenodd" fill-rule="evenodd"><path d="m49.5257 162.248c27.2501 0 49.4745-4.634 49.4745-10.315 0-5.682-22.2244-10.315-49.4745-10.315s-49.4744305 4.633-49.4744305 10.315c0 5.681 22.2243305 10.315 49.4744305 10.315z" fill="#e6e7e7"/><path d="m17.9639 158.007c7.697 0 13.975-2.968 13.975-6.607 0-1.819-1.5691-3.471-4.1009-4.668-2.5317-1.196-6.0252-1.938-9.8741-1.938-3.8481 0-7.3424.742-9.87408 1.938-2.53237 1.197-4.10154 2.849-4.10154 4.668 0 3.639 6.27862 6.607 13.97562 6.607z" fill="#4b4447"/><path d="m14.5195 16.423h10.7732v135.772 1.727l-.0477.043-.0072.006-.0582.049-.0172.015-.0417.034-.0443.035-.0159.012-.0629.047-.1303.093-.0675.046-.0013.001-.0668.043-.0337.022-.0371.023-.0648.041-.0066.004-.0741.042-.0258.016-.049.028-.0595.033-.0172.009-.0781.04-.0165.009-.0629.033-.0503.027-.0297.013-.0827.039-.0073.004-.0761.035-.0423.02-.0423.019-.0814.036-.0046.001-.0887.037-.0337.015-.0543.022-.0734.028-.0172.007-.0906.035-.0238.009-.0688.025-.0649.024-.0291.01-.0952.032-.0113.005-.0853.027-.0536.018-.0437.013-.0972.03h-.0013l-.0993.031-.0436.012-.0576.017-.088.024-.0132.003-.1039.028-.0304.008-.0734.018-.0768.019-.0278.008-.1078.024-.0172.004-.0893.019-.0655.015-.0423.009-.1092.022-.0046.002-.1065.02-.0516.01-.0582.01-.1026.018-.0099.002-.1131.019-.0384.007-.0747.012-.09.012-.0238.004-.1158.016-.0258.004-.0919.011-.0748.01-.0417.006-.1171.013-.0099.001-.1085.012-.0615.005-.0576.006-.1151.01h-.0046l-.1217.01-.0463.004-.0748.005-.1005.006-.0219.001-.123.008-.0318.001-.1773.007-.037.002-.1257.003h-.0159l-.1091.003-.0708.001h-.0549-.1264-.0813-.0814-.0185-.0629l-.0807-.002-.0364-.002-.0436-.001-.0801-.002-.0549-.002h-.0251l-.0807-.005-.0715-.002h-.0073l-.0793-.004-.0794-.005-.0106-.001-.0682-.004-.0787-.005-.0278-.002-.0509-.005-.0774-.006-.0463-.003-.0318-.002-.0767-.007-.0628-.007-.0146-.002-.0761-.006-.0767-.009h-.0027l-.0727-.009-.0768-.009-.0747-.009-.0754-.009-.0364-.005-.0377-.005-.0754-.011-.053-.008-.0198-.002-.0741-.012-.0688-.01-.0046-.001-.0728-.012-.0728-.013-.0125-.002-.0596-.01-.0727-.013-.0278-.005-.0444-.009-.0701-.014-.0443-.007-.0265-.006-.0707-.015-.0702-.014-.0688-.015-.0688-.016-.0688-.016-.0688-.017-.0205-.004-.0469-.012-.0675-.017-.0357-.008-.0318-.008-.0662-.018-.0661-.018-.0655-.018-.0635-.018-.0007-.001-.0661-.019-.0642-.019-.0635-.02-.0635-.019-.2481-.082-.0529-.018-.0073-.004-.0608-.021-.0602-.022-.0596-.022-.0575-.023-.0596-.022-.0569-.025v-2.791z" fill="#a58279"/><path d="m19.9069.753151c4.8689.001323 8.8137 3.946079 8.8137 8.814999 0 4.86695-3.9448 8.81435-8.8137 8.81435-4.8669 0-8.8136-3.9468-8.8136-8.81435 0-4.86892 3.9447-8.814999 8.8136-8.814999z" fill="#a58279"/><path d="m15.4874 17.1944c-4.2114-2.4405-5.64826-7.83133-3.2072-12.04533 2.4384-4.212008 7.8313-5.648206 12.0453-3.20779z" fill="#bd9889"/><path d="m28.7206 9.56815c0 4.86755-3.9448 8.81435-8.8137 8.81435s-8.8136-3.9468-8.8136-8.81435c0 6.27995 8.0304 6.85485 8.7766 6.85485 2.9511 0 8.8507-1.1478 8.8507-6.85485z" fill="#5c443d"/><path d="m14.5205 18.3811c1.8272.8435 3.5922 1.3635 5.3876 1.3635 1.7299 0 3.5895-.2613 5.3849-1.3635h61.3054l-8.0986 25.7134 8.0986 25.7139h-61.3074c-1.6644.8111-3.5902 1.3628-5.3856 1.3628s-3.8495-.682-5.3849-1.3628c0-17.1424 0-34.2848 0-51.4273z" fill="#e64448"/></g></svg>