<svg enable-background="new 0 0 652.68 737.7" viewBox="0 0 652.68 737.7"
	xmlns="http://www.w3.org/2000/svg">
	<path d="m442.39 580.86c20.72-19.5 31.4-48.72 20.27-73.44-16.2 24.87-42.88 44.46-73.81 54.2-12.05 3.79-25.9 6.92-32.45 16.49-4.08 5.95-4.37 13.41-2.54 20.15 1.84 6.74 5.62 12.94 9.36 19.05l.02 1.73c29.33-7.47 58.43-18.68 79.15-38.18z" fill="#f2f2f2"/>
	<path d="m462.04 507.55c-3.49 21.52-14.92 42.22-32.4 57.82-3.79 3.53-8.1 6.46-12.77 8.71-4.81 2.13-10.05 3.1-15.3 2.83-4.95-.16-9.98-.82-14.89.07-4.86.85-9.16 3.65-11.92 7.74-3.25 4.78-4.33 10.29-5.17 15.71-.93 6.02-1.79 12.28-5.75 17.46-.48.63.67 1.24 1.15.61 6.89-9.01 4.59-20.52 9.24-30.24 2.17-4.53 5.93-8.53 11.54-9.89 4.91-1.2 10.11-.52 15.11-.32 5.13.33 10.27-.45 15.08-2.28 4.78-2.03 9.21-4.81 13.11-8.25 8.53-7.29 15.82-15.92 21.59-25.55 6.4-10.55 10.72-22.22 12.73-34.4.12-.74-1.23-.76-1.35-.02z" fill="#fff"/>
	<path d="m435.63 560.56c7.29 4.52 16.65 3.92 23.31-1.49.62-.53-.3-1.39-.92-.85-6.19 5.05-14.92 5.59-21.69 1.35-.7-.45-1.4.55-.7.99z" fill="#fff"/>
	<path d="m404.07 577.27c-1.4-7.61.52-15.45 5.27-21.55.48-.63-.67-1.24-1.15-.61-4.93 6.36-6.91 14.52-5.43 22.43.14.75 1.45.47 1.31-.27z" fill="#fff"/>
	<path d="m455.34 531.11c-2.99-1.07-5.21-3.6-5.88-6.7-.13-.74-1.44-.47-1.31.27.75 3.42 3.19 6.22 6.48 7.42.32.16.7.08.93-.19.17-.25.11-.59-.14-.76-.02-.01-.05-.03-.08-.04z" fill="#fff"/>
	<path d="m364.41 479.32c.07.47.14.93.19 1.41.87 6.28 1.16 12.62.85 18.95-.01.49-.04.99-.07 1.47-.98 15.4-5.17 30.42-12.32 44.09-2.91 5.58-6.26 10.92-10.04 15.96-5.26 7.03-11.6 14.29-13.82 22.18-.24.82-.42 1.65-.55 2.5l32.15 33.05c.12.04.22.09.34.14l1.21 1.37c.22-.25.44-.51.65-.77.13-.14.25-.3.37-.44.08-.1.16-.2.24-.28.03-.03.05-.07.07-.09.08-.09.15-.17.22-.25 1.23-1.47 2.45-2.96 3.66-4.45.01-.01.01-.01.01-.02 9.2-11.39 17.38-23.55 23.17-36.41.17-.39.36-.78.52-1.18 2.56-5.76 4.59-11.75 6.05-17.88.78-3.33 1.37-6.7 1.76-10.1.99-8.77.39-17.65-1.78-26.2-4.33-17.14-14.92-32.89-31.65-42.33-.37-.25-.79-.49-1.23-.72z" fill="#f2f2f2"/>
	<path d="m364 479.75c12.13 19.01 17.34 41.52 14.2 63.11-.57 4.75-1.98 9.37-4.16 13.63-2.43 4.28-5.97 7.83-10.25 10.26-4.06 2.46-8.54 4.57-11.84 7.85-3.29 3.24-4.83 7.85-4.15 12.41.72 5.52 3.67 10.48 6.76 15.25 3.43 5.29 7.08 10.74 7.51 16.95.05.75 1.39.64 1.34-.11-.74-10.8-10.56-18.78-13.58-28.97-1.41-4.75-1.18-9.91 2.36-13.94 3.09-3.52 7.71-5.7 11.84-8.16 4.23-2.33 7.82-5.67 10.46-9.71 2.42-4.14 4.03-8.7 4.75-13.44 1.76-10.51 1.6-21.24-.47-31.69-2.35-12.14-6.99-23.72-13.67-34.12-.42-.66-1.51.02-1.1.68z" fill="#fff"/>
	<path d="m379.65 535.89c8.81-.08 16.32-5.82 17.58-13.38.12-.74-1.2-.95-1.33-.2-1.18 7.08-8.15 12.34-16.38 12.42-.87 0-.73 1.16.13 1.16z" fill="#fff"/>
	<path d="m366.03 565.74c-6.16-4.91-10.03-12.12-10.72-19.96-.05-.75-1.39-.64-1.34.11.74 8.16 4.79 15.66 11.21 20.75.63.52 1.48-.39.85-.9z" fill="#fff"/>
	<path d="m374.98 502.06c-3.3.67-6.72-.17-9.33-2.28-.62-.53-1.47.38-.86.9 2.9 2.32 6.67 3.25 10.32 2.54.36-.07.64-.29.61-.64-.07-.34-.39-.57-.74-.52z" fill="#fff"/>
	<g fill="#f2f2f2">
		<path d="m289.91 618.05c-40.02 27.36-79.81 34.31-112.04 19.55-41.36-18.93-66.42-71.06-68.74-143.01l2.45.23c2.29 70.95 26.75 122.24 67.11 140.71 31.37 14.36 70.3 7.46 109.62-19.43z"/>
		<path d="m537.22 154.73c-3.94 43.42-15.17 89.21-32.78 133.39-21.78 54.63-51.53 102.75-86.04 139.16l-1.92-1.67c34.34-36.23 63.96-84.14 85.64-138.55 19.6-49.17 31.25-100.33 33.72-147.94l2.45.41c-.24 5.03-.6 10.09-1.07 15.2z"/>
		<path d="m430.91 93.02-2.38.26c-10.61-41.68-31.17-70.56-59.46-83.51-35.97-16.47-80.45-5.42-125.24 31.12-45.02 36.72-84.87 94.73-112.22 163.34l-2.31-1.06c27.47-68.91 67.52-127.2 112.79-164.13 45.51-37.1 90.89-48.24 127.8-31.35 29.11 13.33 50.21 42.83 61.02 85.33z"/>
		<path d="m562.92 455.92c-48.47 77.12-107.28 132.22-165.59 155.15l-1.18-2.16c57.91-22.77 116.37-77.59 164.62-154.36z"/>
		<path d="m637.71 283.15c-.8 8.8-1.82 17.71-3.07 26.73l-2.43-.59c9.33-67.28 6.02-128.97-9.57-178.42l2.34-.39c13.6 43.13 17.92 95.48 12.73 152.67z"/>
		<path d="m131.43 216.3c-6.22 13.11-12.14 26.69-17.59 40.36-31.36 78.68-47.25 159.04-45.95 232.39l-2.45-.26c-1.3-73.62 14.64-154.25 46.1-233.18 5.47-13.71 11.4-27.33 17.64-40.47z"/>
		<path d="m288.73 672.11c-40.02 27.36-79.81 34.31-112.04 19.55-41.36-18.93-66.42-71.06-68.74-143.01l2.45.23c2.29 70.95 26.75 122.24 67.11 140.71 31.37 14.36 70.3 7.46 109.62-19.43z"/>
		<path d="m536.05 208.79c-3.94 43.42-15.17 89.21-32.78 133.39-21.78 54.63-51.53 102.75-86.04 139.16l-1.92-1.67c34.34-36.23 63.96-84.14 85.64-138.55 19.6-49.17 31.25-100.33 33.72-147.94l2.45.41c-.25 5.03-.61 10.1-1.07 15.2z"/>
		<path d="m531.73 150.08-2.38.26c-10.61-41.68-31.17-70.56-59.46-83.51-35.97-16.46-80.44-5.41-125.23 31.13-45.02 36.72-84.87 94.73-112.22 163.34l-2.31-1.06c27.47-68.91 67.52-127.2 112.79-164.13 45.5-37.12 90.88-48.25 127.79-31.36 29.11 13.33 50.21 42.83 61.02 85.33z"/>
		<path d="m559.74 528.99c-48.47 77.11-107.27 132.21-165.59 155.15l-1.18-2.16c57.91-22.77 116.37-77.59 164.62-154.36z"/>
		<path d="m636.53 337.21c-.8 8.8-1.82 17.71-3.07 26.73l-2.43-.59c9.33-67.28 6.02-128.97-9.57-178.42l2.34-.39c13.6 43.13 17.92 95.48 12.73 152.67z"/>
		<path d="m130.26 270.37c-6.22 13.11-12.14 26.69-17.59 40.36-31.36 78.68-47.25 159.04-45.95 232.38l-2.45-.26c-1.3-73.62 14.64-154.25 46.1-233.18 5.47-13.71 11.4-27.33 17.64-40.47z"/>
	</g>
	<ellipse cx="590.66" cy="226.78" fill="#fd6584" rx="8.86" ry="10.19" transform="matrix(.5539 -.8326 .8326 .5539 74.6735 592.9323)"/>
	<path d="m287.73 284.34c5.67-8.69 14.94-15.53 25.25-16.1 10.32-.58 22.71 8.21 27.81 17.25 9.31 16.54 5.27 32.43-7.56 43.94-1.74-.59-7.82-2.38-9.6-2.95l-1.12-2.03-1.39 1.23c-15.85 1.58-31.17-.18-43.1-11.99 1.49-10.28 4.03-20.65 9.71-29.35z" fill="#2f2e41"/>
	<path d="m330.23 400.4-1.87 17.39 1.1 22.79-50.48-6-4.75-34.18 6.04.06z" fill="#ffb6b6"/>
	<circle cx="309.5" cy="304.33" fill="#ffb7b7" r="20.96"/>
	<path d="m286.27 343.28 12-7.2 23.99-2.4 21.21 10.8-.21 32.99-13.45 34.21-56.38-7.2-2.14-12.07s-15.6-20.95 1.2-32.94z" fill="#f9906e"/>
	<path d="m301.66 272.49c14-3.93 28.54 4.24 32.46 18.25 1.35 4.82 1.3 9.92-.14 14.71-12.77 1.02-25.39-.17-35.34-9.21l-.89-7.75-3.63 6.48c-3.66-1.03-7.33-2.07-11-3.11 2.29-9.29 9.36-16.67 18.54-19.37z" fill="#2f2e41"/>
	<path d="m214.27 245.33c-2.15 4.58-.18 10.03 4.4 12.18.49.23 1 .41 1.52.55l39.06 73.7 15.77-12.17-43.35-68.61c.99-4.99-2.25-9.83-7.24-10.82-4.18-.84-8.38 1.3-10.16 5.17z" fill="#ffb6b6"/>
	<path d="m278.34 356.66s-3.62 3.21-8.77-5.65c-4.12-7.1-24.67-38.87-27.58-49.88-3.28.09-6.21-2.05-7.12-5.21l22.07-8.57c4.8 2.4 3.47 5.72 2.25 7.45l8.22 12.33 27.35 30.69-13.76 16.56z" fill="#f9906e"/>
	<path d="m651.48 737.7h-650.29c-.66 0-1.19-.54-1.19-1.19s.53-1.18 1.19-1.19h650.29c.66 0 1.19.54 1.19 1.19 0 .66-.53 1.19-1.19 1.19z" fill="#ccc"/>
	<ellipse cx="157.89" cy="455.38" fill="#f2f2f2" rx="8.86" ry="10.19" transform="matrix(.5539 -.8326 .8326 .5539 -308.7055 334.5971)"/>
	<ellipse cx="563.19" cy="454.1" fill="#e6e6e6" rx="8.86" ry="10.19" transform="matrix(.5539 -.8326 .8326 .5539 -126.8372 671.4653)"/>
	<ellipse cx="410.19" cy="307.1" fill="#e6e6e6" rx="8.86" ry="10.19" transform="matrix(.5539 -.8326 .8326 .5539 -72.6999 478.5071)"/>
	<path d="m356.42 715.98h-11.04l-5.25-42.58h16.29z" fill="#ffb6b6"/>
	<path d="m362.24 735.1h-7.92l-1.41-7.47-3.62 7.47h-20.99c-2.61 0-4.72-2.11-4.72-4.72 0-1.55.76-3 2.04-3.88l16.77-11.58v-7.56l17.63 1.05z" fill="#2f2e41"/>
	<path d="m294.42 715.98h-11.04l-5.25-42.58h16.29z" fill="#ffb6b6"/>
	<path d="m300.24 735.1h-7.92l-1.41-7.47-3.62 7.47h-20.99c-2.61 0-4.72-2.11-4.72-4.72 0-1.55.76-3 2.04-3.88l16.77-11.58v-7.56l17.63 1.05z" fill="#2f2e41"/>
	<path d="m361.18 679.26h-.12l-2.12-69.22c2.79-5.38 2.7-11.8-.24-17.11l-.3-.55.79-3.65c1.01-4.69.55-9.58-1.33-14l-1.98-64.57c7.07-45.85-26.64-75.75-26.64-75.75h-50.51l-10.84 37.26c-7.17 69.84-5.87 137.9 5.51 203.83l-.31.16c-1.12.39-1.6 1.93-1.07 3.46s1.86 2.44 2.97 2.06l26.67-.93c1.12-.39 1.6-1.93 1.07-3.46-.53-1.52-1.86-2.44-2.97-2.06l-1.81.92 3.87-66.8-.43-12.2.88-13.84 4.09-62.26 15.48 76.56 15.81 82.93c-1.19 1.08-1.28 2.92-.2 4.11.55.61 1.34.96 2.16.96h21.58c1.61 0 2.92-1.3 2.92-2.91s-1.3-2.92-2.91-2.92c-.01-.02-.02-.02-.02-.02z" fill="#2f2e41"/>
	<path d="m337.62 485.71c4.31-2.65 5.65-8.29 3-12.6-.28-.46-.61-.89-.96-1.29l7.74-83.05-19.86 1.53-1.36 81.15c-3.56 3.63-3.51 9.46.12 13.02 3.03 2.98 7.72 3.49 11.32 1.24z" fill="#ffb6b6"/>
	<path d="m342.73 344.81s4.79-.7 4.23 9.53c-.44 8.19 1.67 58.7-1.94 69.5 2.8 1.72 4.07 5.12 3.1 8.26l-23.16-4.94c-2.7-4.64-2.14-9.4-.18-10.17l-.12-14.82-5.12-48.85 19.71-8.07z" fill="#f9906e"/>
</svg>